HIERARCHY
ROOT Pelvis
{
	OFFSET 0.000000 0.000000 0.000000
	CHANNELS 6 Xposition Yposition Zposition Xrotation Yrotation Zrotation
	JOINT LeftUpLeg_virtual
	{
		OFFSET 0.000000 0.000000 0.000000
		CHANNELS 3 Xrotation Yrotation Zrotation
		JOINT LeftUpLeg
		{
			OFFSET 18.735201 -5.666702 -4.541200
			CHANNELS 3 Xrotation Yrotation Zrotation
			JOINT LeftLeg
			{
				OFFSET -0.021200 -31.938179 0.493100
				CHANNELS 3 Xrotation Yrotation Zrotation
				JOINT LeftFoot
				{
					OFFSET 0.021200 -31.938179 -4.336299
					CHANNELS 3 Xrotation Yrotation Zrotation
					JOINT LeftToeBase
					{
						OFFSET 0.943001 -26.722000 15.023500
						CHANNELS 3 Xrotation Yrotation Zrotation
						End Site
						{
							OFFSET 0 0 0
						}
					}
				}
			}
		}
	}
	JOINT RightUpLeg_virtual
	{
		OFFSET 0.000000 0.000000 0.000000
		CHANNELS 3 Xrotation Yrotation Zrotation
		JOINT RightUpLeg
		{
			OFFSET -18.735201 -5.666702 -4.541200
			CHANNELS 3 Xrotation Yrotation Zrotation
			JOINT RightLeg
			{
				OFFSET 0.018946 -31.938133 0.493100
				CHANNELS 3 Xrotation Yrotation Zrotation
				JOINT RightFoot
				{
					OFFSET -0.018946 -31.938126 -4.336299
					CHANNELS 3 Xrotation Yrotation Zrotation
					JOINT RightToeBase
					{
						OFFSET -0.943001 -26.722004 15.023500
						CHANNELS 3 Xrotation Yrotation Zrotation
						End Site
						{
							OFFSET 0 0 0
						}
					}
				}
			}
		}
	}
	JOINT Hips_virtual
	{
		OFFSET 0.000000 0.000000 0.000000
		CHANNELS 3 Xrotation Yrotation Zrotation
		JOINT Hips
		{
			OFFSET -0.000000 -0.000000 -0.000000
			CHANNELS 3 Xrotation Yrotation Zrotation
			JOINT Spine
			{
				OFFSET 0.000000 10.199997 -0.299500
				CHANNELS 3 Xrotation Yrotation Zrotation
				JOINT Spine1
				{
					OFFSET 0.000000 11.900002 -1.516600
					CHANNELS 3 Xrotation Yrotation Zrotation
					JOINT Spine2
					{
						OFFSET 0.000000 13.600006 -2.842500
						CHANNELS 3 Xrotation Yrotation Zrotation
						JOINT Neck_virtual
						{
							OFFSET 0.000000 0.000000 0.000000
							CHANNELS 3 Xrotation Yrotation Zrotation
							JOINT Neck
							{
								OFFSET 0.000000 9.624100 -2.890100
								CHANNELS 3 Xrotation Yrotation Zrotation
								JOINT Head
								{
									OFFSET 0.000000 14.068802 -1.351900
									CHANNELS 3 Xrotation Yrotation Zrotation
									End Site
									{
										OFFSET 0 0 0
									}
								}
							}
						}
						JOINT LeftShoulder_virtual
						{
							OFFSET 0.000000 0.000000 0.000000
							CHANNELS 3 Xrotation Yrotation Zrotation
							JOINT LeftShoulder
							{
								OFFSET 15.263000 10.923401 -0.547700
								CHANNELS 3 Xrotation Yrotation Zrotation
								JOINT LeftArm
								{
									OFFSET 25.438599 -2.830597 -13.032500
									CHANNELS 3 Xrotation Yrotation Zrotation
									JOINT LeftForeArm
									{
										OFFSET 29.960503 0.000000 0.000000
										CHANNELS 3 Xrotation Yrotation Zrotation
										JOINT LeftHand
										{
											OFFSET 27.849251 0.000000 0.000000
											CHANNELS 3 Xrotation Yrotation Zrotation
											End Site
											{
												OFFSET 0 0 0
											}
										}
									}
								}
							}
						}
						JOINT RightShoulder_virtual
						{
							OFFSET 0.000000 0.000000 0.000000
							CHANNELS 3 Xrotation Yrotation Zrotation
							JOINT RightShoulder
							{
								OFFSET -15.263000 10.923401 -0.547700
								CHANNELS 3 Xrotation Yrotation Zrotation
								JOINT RightArm
								{
									OFFSET -25.438599 -2.830597 -13.032500
									CHANNELS 3 Xrotation Yrotation Zrotation
									JOINT RightForeArm
									{
										OFFSET -29.960503 0.000000 0.000000
										CHANNELS 3 Xrotation Yrotation Zrotation
										JOINT RightHand
										{
											OFFSET -27.849251 0.000000 0.000000
											CHANNELS 3 Xrotation Yrotation Zrotation
											End Site
											{
												OFFSET 0 0 0
											}
										}
									}
								}
							}
						}
					}
				}
			}
		}
	}
}
MOTION
Frames: 8
Frame Time: 0.03333333
0.921273 94.461136 4.755657 0.000000 0.000000 0.000000 -3.300664 4.674061 -1.899565 -9.594905 7.232188 13.311583 21.680460 -6.694552 0.710375 -4.606962 1.415049 -9.417533 0.000000 0.000000 0.000000 -3.912736 5.716182 -2.224897 -4.181608 -4.507845 1.281040 13.952991 4.362492 -0.956002 -5.164479 2.888975 2.851049 0.000000 0.000000 0.000000 -3.763026 5.017097 -1.780238 -0.560122 -0.354150 -0.849300 8.689187 0.662484 2.270519 1.355192 -0.651890 -0.252515 0.000000 0.000000 0.000000 -3.503602 -0.586332 -0.741673 -0.034303 -0.262599 0.375787 0.000000 0.000000 0.000000 -2.807183 -0.678356 -0.912371 1.032330 -5.837917 -3.327583 -1.312591 -4.839268 -75.282721 6.791885 -16.327868 1.009808 0.000000 0.000000 0.000000 -2.881534 -0.436725 -0.396277 3.005927 8.621427 2.821840 -0.304894 4.249421 75.181859 15.865597 14.347811 -2.525446 0.000000 0.000000 0.000000 
1.076037 94.429184 4.927240 0.000000 0.000000 0.000000 -3.319053 4.456828 -1.829876 -9.563893 7.462178 13.166981 21.676888 -6.547058 0.667880 -5.254183 1.489767 -9.044023 0.000000 0.000000 0.000000 -3.984565 5.511086 -2.265920 -4.175946 -4.483711 1.310190 13.677853 4.318295 -1.028307 -5.421159 2.724411 2.380194 0.000000 0.000000 0.000000 -3.799910 4.885204 -1.758358 -0.522516 -0.273143 -0.796235 8.764628 0.631537 2.245492 1.360948 -0.633759 -0.244909 0.000000 0.000000 0.000000 -3.465491 -0.578041 -0.740590 -0.039898 -0.258876 0.359070 0.000000 0.000000 0.000000 -2.773483 -0.670388 -0.897219 1.018642 -5.844720 -3.318620 -1.367290 -4.858569 -75.359656 6.856816 -16.126439 0.938302 0.000000 0.000000 0.000000 -2.839928 -0.417943 -0.384387 2.991483 8.798222 2.713376 -0.385188 4.441516 75.377189 15.796052 14.409925 -2.844038 0.000000 0.000000 0.000000 
1.382837 94.355309 5.074642 0.000000 0.000000 0.000000 -3.311832 4.176113 -1.736671 -9.465926 7.952133 12.718934 21.493169 -6.267363 0.540111 -6.022178 1.651451 -8.659806 0.000000 0.000000 0.000000 -4.021267 5.243378 -2.292726 -4.352955 -4.609763 0.959429 13.682437 4.334725 -0.896503 -5.626740 2.566018 2.221277 0.000000 0.000000 0.000000 -3.831413 4.611854 -1.700118 -0.443563 -0.156901 -0.802246 8.833718 0.598709 2.181241 1.382726 -0.610129 -0.210086 0.000000 0.000000 0.000000 -3.428162 -0.548882 -0.699007 -0.085024 -0.259187 0.336866 0.000000 0.000000 0.000000 -2.725535 -0.644618 -0.859238 0.994148 -5.852658 -3.339256 -1.570032 -4.856676 -75.459909 6.983501 -16.044620 0.854155 0.000000 0.000000 0.000000 -2.742259 -0.389462 -0.360212 2.970281 8.839932 2.379260 -0.580632 4.799821 75.646941 15.610787 14.663289 -3.502512 0.000000 0.000000 0.000000 
1.792860 94.237373 5.205778 0.000000 0.000000 0.000000 -3.305601 3.913634 -1.618826 -9.357365 8.507079 12.087276 21.366987 -5.905338 0.417840 -6.703324 1.927420 -8.205112 0.000000 0.000000 0.000000 -3.966152 4.971903 -2.247309 -4.640301 -4.879563 0.280098 13.848726 4.422371 -0.547841 -5.539954 2.514457 2.552495 0.000000 0.000000 0.000000 -3.840899 4.259843 -1.595048 -0.370183 0.003181 -0.882164 8.864490 0.573961 2.092740 1.418367 -0.585505 -0.153964 0.000000 0.000000 0.000000 -3.393682 -0.507136 -0.622394 -0.154618 -0.261162 0.317994 0.000000 0.000000 0.000000 -2.670643 -0.606429 -0.803977 0.966928 -5.815437 -3.370360 -1.797812 -4.903995 -75.528799 7.148056 -16.112874 0.748372 0.000000 0.000000 0.000000 -2.625682 -0.356294 -0.325129 2.942808 8.757776 1.897588 -0.871000 5.250718 75.965705 15.338211 15.079205 -4.444491 0.000000 0.000000 0.000000 
2.299255 94.102135 5.311722 0.000000 0.000000 0.000000 -3.273837 3.732342 -1.466505 -9.265143 8.961469 11.361828 21.436808 -5.560240 0.372411 -7.175313 2.282142 -7.721140 0.000000 0.000000 0.000000 -3.779774 4.798028 -2.117182 -4.904583 -5.195290 -0.597994 13.825405 4.587940 -0.064058 -5.088654 2.643373 3.288401 0.000000 0.000000 0.000000 -3.771530 3.946970 -1.443525 -0.367029 0.191721 -0.969272 8.849150 0.577418 1.991955 1.459178 -0.559625 -0.088662 0.000000 0.000000 0.000000 -3.365043 -0.462500 -0.524685 -0.231774 -0.262176 0.309663 0.000000 0.000000 0.000000 -2.599835 -0.560617 -0.738917 0.950695 -5.679920 -3.402150 -1.934786 -5.070595 -75.567587 7.333033 -16.304975 0.606637 0.000000 0.000000 0.000000 -2.529011 -0.322149 -0.274514 2.916889 8.613112 1.370023 -1.234725 5.698726 76.312249 14.990131 15.629180 -5.577842 0.000000 0.000000 0.000000 
2.881127 94.009041 5.434040 0.000000 0.000000 0.000000 -3.166645 3.662574 -1.286444 -9.185016 9.209877 10.625041 21.682372 -5.296684 0.424265 -7.463910 2.666593 -7.236346 0.000000 0.000000 0.000000 -3.484486 4.708468 -1.912262 -4.941924 -5.418927 -1.476319 13.599683 4.750136 0.394865 -4.539849 2.867959 4.053423 0.000000 0.000000 0.000000 -3.610187 3.778514 -1.263870 -0.388659 0.321794 -1.012602 8.792279 0.605287 1.890070 1.486457 -0.536373 -0.026620 0.000000 0.000000 0.000000 -3.346566 -0.418617 -0.425631 -0.307461 -0.260154 0.316143 0.000000 0.000000 0.000000 -2.525069 -0.511965 -0.670462 0.940958 -5.441523 -3.431506 -1.935154 -5.440013 -75.570504 7.526197 -16.551136 0.415569 0.000000 0.000000 0.000000 -2.477635 -0.287032 -0.211124 2.888804 8.465103 0.881207 -1.588699 6.035472 76.660028 14.602060 16.266468 -6.777390 0.000000 0.000000 0.000000 
3.545579 93.960342 5.632256 0.000000 0.000000 0.000000 -2.981058 3.610057 -1.097516 -9.011172 9.262489 9.931460 21.947553 -5.114278 0.564541 -7.880616 3.042696 -6.713188 0.000000 0.000000 0.000000 -3.179623 4.618123 -1.665177 -4.779274 -5.451021 -2.208416 13.342524 4.801756 0.694170 -4.267252 2.900091 4.543686 0.000000 0.000000 0.000000 -3.424469 3.689987 -1.072171 -0.402978 0.375793 -1.030630 8.764422 0.636695 1.795260 1.494335 -0.515604 0.040022 0.000000 0.000000 0.000000 -3.318884 -0.380697 -0.333471 -0.371387 -0.256364 0.338670 0.000000 0.000000 0.000000 -2.463087 -0.465788 -0.603864 0.928721 -5.144052 -3.490856 -1.917931 -5.969565 -75.551092 7.730836 -16.744432 0.170246 0.000000 0.000000 0.000000 -2.493143 -0.252663 -0.136552 2.857915 8.349921 0.489595 -1.871692 6.171356 76.921160 14.162299 16.880297 -7.899269 0.000000 0.000000 0.000000 
4.243814 93.991463 5.890245 0.000000 0.000000 0.000000 -2.751168 3.449561 -0.932920 -8.603676 9.228206 9.307955 21.972753 -5.006021 0.687800 -8.535845 3.337201 -6.207520 0.000000 0.000000 0.000000 -2.938508 4.513646 -1.472297 -4.547104 -5.292341 -2.785922 13.295491 4.677486 0.809188 -4.507506 2.682953 4.749004 0.000000 0.000000 0.000000 -3.229433 3.631206 -0.917712 -0.413578 0.281796 -1.022574 8.850583 0.657817 1.711821 1.471856 -0.494752 0.112599 0.000000 0.000000 0.000000 -3.292146 -0.350191 -0.247811 -0.420655 -0.251027 0.374257 0.000000 0.000000 0.000000 -2.419779 -0.428442 -0.536893 0.914636 -4.831557 -3.603976 -2.025274 -6.515582 -75.512727 7.949432 -16.860199 -0.107982 0.000000 0.000000 0.000000 -2.555689 -0.221275 -0.046888 2.845715 8.270858 0.195289 -2.086741 6.088227 77.099619 13.681262 17.407348 -8.822017 0.000000 0.000000 0.000000 
